<?xml version="1.0" encoding="UTF-8"?>
<svg clip-rule="evenodd" fill-rule="evenodd" image-rendering="optimizeQuality" shape-rendering="geometricPrecision" text-rendering="geometricPrecision" viewBox="0 0 1218 4118" xml:space="preserve" xmlns="http://www.w3.org/2000/svg">
 <defs>
  <style type="text/css">
    .fil0 {fill:black}
  </style>
 </defs>
  <path class="fil0" d="m913 2981c182 105 304 302 304 527 0 336-273 609-609 609s-609-273-609-609c0-225 122-422 304-527v-2677c0-167 137-304 304-304s304 137 304 304v556h209v78h-209v492h209v78h-209v492h209v78h-209v492h209v78h-209v336zm-187 113v-1257h-236v1257c-181 51-313 217-313 414 0 238 193 431 431 431s431-193 431-431c0-197-132-363-313-414zm77-50v-2740c0-107-88-195-195-195s-195 88-195 195v2740l-55 32c-154 89-250 254-250 433 0 276 224 499 499 499 276 0 499-224 499-499 0-179-95-343-250-433l-55-32z"/>
</svg>
